<svg viewBox="0 0 40 40" fill="none" xmlns="http://www.w3.org/2000/svg">
<path d="M16 18C16.3693 17.9989 16.7312 17.8955 17.0453 17.7014C17.3595 17.5072 17.6138 17.2298 17.78 16.9C18.0172 16.4277 18.0578 15.8806 17.8929 15.3784C17.728 14.8763 17.3711 14.4598 16.9 14.22L12.9 12.22C12.6644 12.0782 12.402 11.9865 12.1293 11.9507C11.8566 11.9149 11.5795 11.9357 11.3152 12.0118C11.0509 12.088 10.8052 12.2178 10.5933 12.3932C10.3815 12.5686 10.2081 12.7858 10.084 13.0312C9.95993 13.2767 9.88779 13.5451 9.8721 13.8197C9.85642 14.0942 9.89754 14.3691 9.99289 14.6271C10.0882 14.885 10.2358 15.1206 10.4263 15.3189C10.6168 15.5173 10.8461 15.6743 11.1 15.78L15.1 17.78C15.3766 17.9281 15.6863 18.0038 16 18ZM20 0C16.0444 0 12.1776 1.17298 8.8886 3.37061C5.59962 5.56824 3.03617 8.69181 1.52242 12.3463C0.00866568 16.0009 -0.387401 20.0222 0.384303 23.9018C1.15601 27.7814 3.06082 31.3451 5.85787 34.1421C8.65492 36.9392 12.2186 38.844 16.0982 39.6157C19.9778 40.3874 23.9992 39.9913 27.6537 38.4776C31.3082 36.9638 34.4318 34.4004 36.6294 31.1114C38.827 27.8224 40 23.9556 40 20C40 17.3736 39.4827 14.7728 38.4776 12.3463C37.4725 9.91982 35.9993 7.71504 34.1421 5.85786C32.285 4.00069 30.0802 2.5275 27.6537 1.52241C25.2272 0.517315 22.6264 0 20 0ZM20 36C16.8355 36 13.7421 35.0616 11.1109 33.3035C8.4797 31.5454 6.42894 29.0466 5.21794 26.1229C4.00693 23.1993 3.69008 19.9823 4.30745 16.8786C4.92481 13.7749 6.44866 10.9239 8.6863 8.68629C10.9239 6.44865 13.7749 4.9248 16.8786 4.30744C19.9823 3.69007 23.1993 4.00693 26.1229 5.21793C29.0466 6.42893 31.5454 8.47969 33.3035 11.1109C35.0616 13.7421 36 16.8355 36 20C36 24.2435 34.3143 28.3131 31.3137 31.3137C28.3131 34.3143 24.2435 36 20 36ZM12.72 26.66C12.3169 26.9986 12.0635 27.4824 12.0148 28.0066C11.9662 28.5308 12.1261 29.053 12.46 29.46C12.6279 29.6625 12.8341 29.8299 13.0668 29.9526C13.2995 30.0753 13.5541 30.1509 13.8161 30.1751C14.078 30.1992 14.3422 30.1715 14.5934 30.0934C14.8446 30.0153 15.0779 29.8884 15.28 29.72C16.617 28.6421 18.2826 28.0542 20 28.0542C21.7174 28.0542 23.383 28.6421 24.72 29.72C25.0798 30.0182 25.5327 30.1809 26 30.18C26.4072 30.176 26.8034 30.0478 27.1357 29.8126C27.4681 29.5773 27.7207 29.2462 27.8599 28.8636C27.999 28.4809 28.0181 28.0649 27.9144 27.6711C27.8108 27.2774 27.5895 26.9246 27.28 26.66C25.2163 25.0011 22.6478 24.0968 20 24.0968C17.3522 24.0968 14.7838 25.0011 12.72 26.66ZM27.1 12.22L23.1 14.22C22.629 14.4598 22.272 14.8763 22.1071 15.3784C21.9422 15.8806 21.9828 16.4277 22.22 16.9C22.3862 17.2298 22.6405 17.5072 22.9547 17.7014C23.2689 17.8955 23.6307 17.9989 24 18C24.3138 18.0038 24.6234 17.9281 24.9 17.78L28.9 15.78C29.3327 15.5196 29.6509 15.1052 29.7907 14.62C29.9305 14.1347 29.8815 13.6145 29.6537 13.1639C29.4258 12.7132 29.0359 12.3654 28.5622 12.1904C28.0886 12.0153 27.5662 12.0259 27.1 12.22Z" fill="#424866"/>
</svg>
