<svg viewBox="0 0 28 40" fill="none" xmlns="http://www.w3.org/2000/svg">
<path d="M22 0H6.00002C4.40872 0 2.88259 0.632141 1.75738 1.75736C0.632157 2.88258 1.57658e-05 4.4087 1.57658e-05 6V38C-0.00138337 38.3524 0.0903651 38.699 0.265972 39.0045C0.441578 39.3101 0.694807 39.5638 1.00002 39.74C1.30405 39.9155 1.64894 40.0079 2.00002 40.0079C2.35109 40.0079 2.69598 39.9155 3.00002 39.74L14 33.38L25 39.74C25.3048 39.9128 25.6497 40.0024 26 40C26.3504 40.0024 26.6952 39.9128 27 39.74C27.3052 39.5638 27.5585 39.3101 27.7341 39.0045C27.9097 38.699 28.0014 38.3524 28 38V6C28 4.4087 27.3679 2.88258 26.2427 1.75736C25.1174 0.632141 23.5913 0 22 0ZM24 34.54L15 29.34C14.696 29.1645 14.3511 29.0721 14 29.0721C13.6489 29.0721 13.3041 29.1645 13 29.34L4.00002 34.54V6C4.00002 5.46957 4.21073 4.96086 4.5858 4.58579C4.96088 4.21071 5.46958 4 6.00002 4H22C22.5304 4 23.0392 4.21071 23.4142 4.58579C23.7893 4.96086 24 5.46957 24 6V34.54Z" fill="#424866"/>
</svg>
