<svg viewBox="0 0 40 40" fill="none" xmlns="http://www.w3.org/2000/svg">
<path d="M38 8C37.4696 8 36.9609 8.21071 36.5858 8.58579C36.2107 8.96086 36 9.46957 36 10V30C36 31.5913 35.3679 33.1174 34.2426 34.2426C33.1174 35.3679 31.5913 36 30 36H10C9.46957 36 8.96086 36.2107 8.58579 36.5858C8.21071 36.9609 8 37.4696 8 38C8 38.5304 8.21071 39.0391 8.58579 39.4142C8.96086 39.7893 9.46957 40 10 40H30C32.6522 40 35.1957 38.9464 37.0711 37.0711C38.9464 35.1957 40 32.6522 40 30V10C40 9.46957 39.7893 8.96086 39.4142 8.58579C39.0391 8.21071 38.5304 8 38 8ZM32 26V6C32 4.4087 31.3679 2.88258 30.2426 1.75736C29.1174 0.632141 27.5913 0 26 0H6C4.4087 0 2.88258 0.632141 1.75736 1.75736C0.632141 2.88258 0 4.4087 0 6V26C0 27.5913 0.632141 29.1174 1.75736 30.2426C2.88258 31.3679 4.4087 32 6 32H26C27.5913 32 29.1174 31.3679 30.2426 30.2426C31.3679 29.1174 32 27.5913 32 26ZM16 4H20V13.72L19.28 13.12C18.9206 12.8207 18.4677 12.6567 18 12.6567C17.5323 12.6567 17.0794 12.8207 16.72 13.12L16 13.72V4ZM4 26V6C4 5.46957 4.21071 4.96086 4.58579 4.58579C4.96086 4.21071 5.46957 4 6 4H12V18C12 18.3823 12.1095 18.7567 12.3157 19.0786C12.5219 19.4006 12.816 19.6567 13.1633 19.8167C13.5105 19.9766 13.8964 20.0337 14.2751 19.9811C14.6538 19.9285 15.0095 19.7685 15.3 19.52L18 17.26L20.7 19.52C21.0623 19.8298 21.5233 20 22 20C22.2893 19.998 22.5752 19.9367 22.84 19.82C23.1872 19.6593 23.481 19.4025 23.6866 19.0799C23.8922 18.7573 24.0009 18.3825 24 18V4H26C26.5304 4 27.0391 4.21071 27.4142 4.58579C27.7893 4.96086 28 5.46957 28 6V26C28 26.5304 27.7893 27.0391 27.4142 27.4142C27.0391 27.7893 26.5304 28 26 28H6C5.46957 28 4.96086 27.7893 4.58579 27.4142C4.21071 27.0391 4 26.5304 4 26Z" fill="#424866"/>
</svg>
