<svg width="40" height="40" viewBox="0 0 40 40" fill="none" xmlns="http://www.w3.org/2000/svg">
<path d="M12.58 18.58C12.3979 18.7702 12.2552 18.9945 12.16 19.24C11.96 19.7269 11.96 20.2731 12.16 20.76C12.2552 21.0055 12.3979 21.2298 12.58 21.42L18.58 27.42C18.9566 27.7966 19.4674 28.0082 20 28.0082C20.5326 28.0082 21.0434 27.7966 21.42 27.42C21.7966 27.0434 22.0082 26.5326 22.0082 26C22.0082 25.4674 21.7966 24.9566 21.42 24.58L18.82 22H26C26.5304 22 27.0391 21.7893 27.4142 21.4142C27.7893 21.0391 28 20.5304 28 20C28 19.4696 27.7893 18.9609 27.4142 18.5858C27.0391 18.2107 26.5304 18 26 18H18.82L21.42 15.42C21.6075 15.2341 21.7562 15.0129 21.8578 14.7692C21.9593 14.5254 22.0116 14.264 22.0116 14C22.0116 13.736 21.9593 13.4746 21.8578 13.2308C21.7562 12.9871 21.6075 12.7659 21.42 12.58C21.2341 12.3925 21.0129 12.2438 20.7692 12.1422C20.5254 12.0407 20.264 11.9884 20 11.9884C19.736 11.9884 19.4746 12.0407 19.2308 12.1422C18.9871 12.2438 18.7659 12.3925 18.58 12.58L12.58 18.58ZM0 20C0 23.9556 1.17298 27.8224 3.37061 31.1114C5.56824 34.4004 8.69181 36.9638 12.3463 38.4776C16.0009 39.9913 20.0222 40.3874 23.9018 39.6157C27.7814 38.844 31.3451 36.9392 34.1421 34.1421C36.9392 31.3451 38.844 27.7814 39.6157 23.9018C40.3874 20.0222 39.9913 16.0009 38.4776 12.3463C36.9638 8.69181 34.4004 5.56824 31.1114 3.37061C27.8224 1.17298 23.9556 0 20 0C17.3736 0 14.7728 0.517315 12.3463 1.52241C9.91982 2.5275 7.71504 4.00069 5.85786 5.85786C2.10714 9.60859 0 14.6957 0 20ZM36 20C36 23.1645 35.0616 26.2579 33.3035 28.8891C31.5454 31.5203 29.0466 33.5711 26.1229 34.7821C23.1993 35.9931 19.9823 36.3099 16.8786 35.6926C13.7749 35.0752 10.9239 33.5513 8.68629 31.3137C6.44865 29.0761 4.9248 26.2251 4.30744 23.1214C3.69007 20.0177 4.00693 16.8007 5.21793 13.8771C6.42893 10.9534 8.47969 8.45459 11.1109 6.69649C13.7421 4.93838 16.8355 4 20 4C24.2435 4 28.3131 5.68571 31.3137 8.68629C34.3143 11.6869 36 15.7565 36 20Z" fill="#424866"/>
</svg>
