<svg width="40" height="40" viewBox="0 0 40 40" fill="none" xmlns="http://www.w3.org/2000/svg">
<path d="M27.42 21.42C27.6021 21.2298 27.7448 21.0055 27.84 20.76C28.04 20.2731 28.04 19.7269 27.84 19.24C27.7448 18.9945 27.6021 18.7702 27.42 18.58L21.42 12.58C21.0434 12.2034 20.5326 11.9918 20 11.9918C19.4674 11.9918 18.9566 12.2034 18.58 12.58C18.2034 12.9566 17.9918 13.4674 17.9918 14C17.9918 14.5326 18.2034 15.0434 18.58 15.42L21.18 18H14C13.4696 18 12.9609 18.2107 12.5858 18.5858C12.2107 18.9609 12 19.4696 12 20C12 20.5304 12.2107 21.0391 12.5858 21.4142C12.9609 21.7893 13.4696 22 14 22H21.18L18.58 24.58C18.3926 24.7659 18.2438 24.9871 18.1422 25.2309C18.0407 25.4746 17.9884 25.736 17.9884 26C17.9884 26.264 18.0407 26.5254 18.1422 26.7692C18.2438 27.0129 18.3926 27.2341 18.58 27.42C18.7659 27.6075 18.9871 27.7563 19.2309 27.8578C19.4746 27.9593 19.736 28.0116 20 28.0116C20.264 28.0116 20.5254 27.9593 20.7692 27.8578C21.0129 27.7563 21.2341 27.6075 21.42 27.42L27.42 21.42ZM40 20C40 16.0444 38.827 12.1776 36.6294 8.8886C34.4318 5.59962 31.3082 3.03617 27.6537 1.52242C23.9992 0.00866568 19.9778 -0.387401 16.0982 0.384303C12.2186 1.15601 8.65492 3.06082 5.85787 5.85787C3.06082 8.65492 1.15601 12.2186 0.384303 16.0982C-0.387401 19.9778 0.00866568 23.9992 1.52242 27.6537C3.03617 31.3082 5.59962 34.4318 8.8886 36.6294C12.1776 38.827 16.0444 40 20 40C25.3043 40 30.3914 37.8929 34.1421 34.1421C37.8929 30.3914 40 25.3043 40 20ZM4.00001 20C4.00001 16.8355 4.93839 13.7421 6.6965 11.1109C8.4546 8.4797 10.9535 6.42894 13.8771 5.21794C16.8007 4.00693 20.0178 3.69008 23.1215 4.30745C26.2252 4.92481 29.0761 6.44866 31.3137 8.6863C33.5514 10.9239 35.0752 13.7749 35.6926 16.8786C36.3099 19.9823 35.9931 23.1993 34.7821 26.1229C33.5711 29.0466 31.5203 31.5454 28.8891 33.3035C26.2579 35.0616 23.1645 36 20 36C15.7565 36 11.6869 34.3143 8.6863 31.3137C5.68572 28.3131 4.00001 24.2435 4.00001 20Z" fill="#424866"/>
</svg>
