<svg width="45" height="41" viewBox="0 0 45 41" fill="none" xmlns="http://www.w3.org/2000/svg">
<path d="M22.079 28.1373C21.6835 28.1373 21.2968 28.2546 20.9679 28.4743C20.639 28.6941 20.3827 29.0064 20.2313 29.3719C20.0799 29.7373 20.0403 30.1395 20.1175 30.5274C20.1946 30.9154 20.3851 31.2718 20.6648 31.5515C20.9445 31.8312 21.3009 32.0217 21.6889 32.0988C22.0768 32.176 22.479 32.1364 22.8444 31.985C23.2099 31.8336 23.5222 31.5773 23.742 31.2484C23.9617 30.9195 24.079 30.5328 24.079 30.1373C24.079 29.6068 23.8683 29.0981 23.4932 28.723C23.1182 28.348 22.6095 28.1373 22.079 28.1373ZM43.419 31.0773L27.319 3.07726C26.7986 2.14429 26.0386 1.36718 25.1174 0.826199C24.1962 0.285222 23.1473 0 22.079 0C21.0108 0 19.9618 0.285222 19.0407 0.826199C18.1195 1.36718 17.3594 2.14429 16.839 3.07726L0.839037 31.0773C0.300628 31.9853 0.0113218 33.0193 0.000325602 34.0749C-0.0106706 35.1305 0.257033 36.1703 0.776408 37.0894C1.29578 38.0084 2.04845 38.7742 2.9584 39.3093C3.86836 39.8445 4.90341 40.1301 5.95904 40.1373H38.199C39.2631 40.1477 40.3109 39.875 41.2349 39.3471C42.1588 38.8191 42.9257 38.055 43.457 37.1329C43.9883 36.2108 44.2647 35.1641 44.258 34.0999C44.2514 33.0358 43.9618 31.9926 43.419 31.0773ZM39.959 35.0773C39.7837 35.3892 39.528 35.6483 39.2184 35.8277C38.9088 36.0071 38.5568 36.1002 38.199 36.0973H5.95904C5.60126 36.1002 5.24923 36.0071 4.93967 35.8277C4.63011 35.6483 4.37434 35.3892 4.19904 35.0773C4.0235 34.7732 3.93109 34.4283 3.93109 34.0773C3.93109 33.7262 4.0235 33.3813 4.19904 33.0773L20.199 5.07726C20.3669 4.74966 20.6219 4.47473 20.9359 4.28275C21.25 4.09077 21.6109 3.98918 21.979 3.98918C22.3471 3.98918 22.7081 4.09077 23.0221 4.28275C23.3362 4.47473 23.5912 4.74966 23.759 5.07726L39.859 33.0773C40.0575 33.3769 40.1715 33.7245 40.1891 34.0835C40.2067 34.4425 40.1272 34.7996 39.959 35.1173V35.0773ZM22.079 12.1373C21.5486 12.1373 21.0399 12.348 20.6648 12.723C20.2898 13.0981 20.079 13.6068 20.079 14.1373V22.1373C20.079 22.6677 20.2898 23.1764 20.6648 23.5515C21.0399 23.9265 21.5486 24.1373 22.079 24.1373C22.6095 24.1373 23.1182 23.9265 23.4932 23.5515C23.8683 23.1764 24.079 22.6677 24.079 22.1373V14.1373C24.079 13.6068 23.8683 13.0981 23.4932 12.723C23.1182 12.348 22.6095 12.1373 22.079 12.1373Z" fill="#424866"/>
</svg>
