<svg width="41" height="41" viewBox="0 0 41 41" fill="none" xmlns="http://www.w3.org/2000/svg">
<path d="M39.4316 18.5916L34.7316 14.0116V7.2916C34.7316 6.76116 34.5209 6.25246 34.1458 5.87738C33.7707 5.50231 33.262 5.2916 32.7316 5.2916H26.1116L21.4316 0.591597C21.2457 0.40414 21.0245 0.255351 20.7808 0.153814C20.537 0.0522765 20.2756 0 20.0116 0C19.7476 0 19.4862 0.0522765 19.2424 0.153814C18.9987 0.255351 18.7775 0.40414 18.5916 0.591597L14.0116 5.2916H7.2916C6.76116 5.2916 6.25246 5.50231 5.87738 5.87738C5.50231 6.25246 5.2916 6.76116 5.2916 7.2916V14.0116L0.591597 18.5916C0.40414 18.7775 0.255351 18.9987 0.153814 19.2424C0.0522765 19.4862 0 19.7476 0 20.0116C0 20.2756 0.0522765 20.537 0.153814 20.7808C0.255351 21.0245 0.40414 21.2457 0.591597 21.4316L5.2916 26.1116V32.7316C5.2916 33.262 5.50231 33.7707 5.87738 34.1458C6.25246 34.5209 6.76116 34.7316 7.2916 34.7316H14.0116L18.6916 39.4316C18.8775 39.6191 19.0987 39.7678 19.3424 39.8694C19.5862 39.9709 19.8476 40.0232 20.1116 40.0232C20.3756 40.0232 20.637 39.9709 20.8808 39.8694C21.1245 39.7678 21.3457 39.6191 21.5316 39.4316L26.2116 34.7316H32.8316C33.362 34.7316 33.8707 34.5209 34.2458 34.1458C34.6209 33.7707 34.8316 33.262 34.8316 32.7316V26.1116L39.5316 21.4316C39.7127 21.2391 39.8538 21.0127 39.9468 20.7654C40.0399 20.5181 40.083 20.2548 40.0737 19.9907C40.0644 19.7267 40.0029 19.4671 39.8927 19.2269C39.7825 18.9868 39.6257 18.7708 39.4316 18.5916ZM31.3316 23.8716C31.1426 24.0568 30.9923 24.2777 30.8893 24.5215C30.7863 24.7652 30.7327 25.027 30.7316 25.2916V30.7316H25.2916C25.027 30.7327 24.7652 30.7863 24.5215 30.8893C24.2777 30.9923 24.0568 31.1426 23.8716 31.3316L20.0116 35.1916L16.1516 31.3316C15.9664 31.1426 15.7455 30.9923 15.5017 30.8893C15.258 30.7863 14.9962 30.7327 14.7316 30.7316H9.2916V25.2916C9.2905 25.027 9.2369 24.7652 9.13391 24.5215C9.03091 24.2777 8.88057 24.0568 8.6916 23.8716L4.8316 20.0116L8.6916 16.1516C8.88057 15.9664 9.03091 15.7455 9.13391 15.5017C9.2369 15.258 9.2905 14.9962 9.2916 14.7316V9.2916H14.7316C14.9962 9.2905 15.258 9.2369 15.5017 9.13391C15.7455 9.03091 15.9664 8.88057 16.1516 8.6916L20.0116 4.8316L23.8716 8.6916C24.0568 8.88057 24.2777 9.03091 24.5215 9.13391C24.7652 9.2369 25.027 9.2905 25.2916 9.2916H30.7316V14.7316C30.7327 14.9962 30.7863 15.258 30.8893 15.5017C30.9923 15.7455 31.1426 15.9664 31.3316 16.1516L35.1916 20.0116L31.3316 23.8716Z" fill="#424866"/>
</svg>
