<svg width="40" height="40" viewBox="0 0 40 40" fill="none" xmlns="http://www.w3.org/2000/svg">
<path d="M9.608 26C9.34277 25.5407 8.90594 25.2055 8.3936 25.0682C7.88125 24.9309 7.33536 25.0028 6.876 25.268L3.412 27.268C2.95639 27.5351 2.62492 27.9716 2.48992 28.4822C2.35493 28.9928 2.42738 29.536 2.69145 29.9934C2.95552 30.4508 3.38979 30.7851 3.89947 30.9235C4.40916 31.0619 4.95288 30.993 5.412 30.732L8.876 28.732C9.33535 28.4668 9.67052 28.0299 9.8078 27.5176C9.94507 27.0053 9.8732 26.4594 9.608 26ZM3.412 12.732L6.876 14.732C7.10354 14.8654 7.35522 14.9525 7.61655 14.9882C7.87788 15.0239 8.14369 15.0076 8.39869 14.9402C8.65369 14.8728 8.89284 14.7556 9.10236 14.5954C9.31188 14.4352 9.48764 14.2351 9.61953 14.0067C9.75141 13.7782 9.83681 13.526 9.87081 13.2644C9.9048 13.0029 9.88673 12.7372 9.81762 12.4826C9.74851 12.2281 9.62974 11.9897 9.46813 11.7813C9.30653 11.5728 9.10529 11.3984 8.876 11.268L5.412 9.268C4.95288 9.00697 4.40916 8.93813 3.89947 9.0765C3.38979 9.21488 2.95552 9.54924 2.69145 10.0066C2.42738 10.464 2.35493 11.0072 2.48992 11.5178C2.62492 12.0284 2.95639 12.4649 3.412 12.732ZM8 20C8 19.4696 7.78929 18.9609 7.41421 18.5858C7.03914 18.2107 6.53043 18 6 18H2C1.46957 18 0.960859 18.2107 0.585786 18.5858C0.210714 18.9609 0 19.4696 0 20C0 20.5304 0.210714 21.0391 0.585786 21.4142C0.960859 21.7893 1.46957 22 2 22H6C6.53043 22 7.03914 21.7893 7.41421 21.4142C7.78929 21.0391 8 20.5304 8 20ZM30.392 14C30.6572 14.4593 31.0941 14.7945 31.6064 14.9318C32.1187 15.0691 32.6646 14.9972 33.124 14.732L36.588 12.732C36.8173 12.6016 37.0185 12.4272 37.1801 12.2187C37.3417 12.0103 37.4605 11.7719 37.5296 11.5174C37.5987 11.2628 37.6168 10.9971 37.5828 10.7356C37.5488 10.474 37.4634 10.2218 37.3315 9.99334C37.1996 9.76492 37.0239 9.56484 36.8144 9.40463C36.6048 9.24441 36.3657 9.12722 36.1107 9.0598C35.8557 8.99238 35.5899 8.97607 35.3285 9.0118C35.0672 9.04754 34.8155 9.1346 34.588 9.268L31.124 11.268C30.6647 11.5332 30.3295 11.9701 30.1922 12.4824C30.0549 12.9947 30.1268 13.5406 30.392 14ZM26 9.608C26.4594 9.8732 27.0053 9.94507 27.5176 9.8078C28.0299 9.67052 28.4668 9.33535 28.732 8.876L30.732 5.412C30.8654 5.18446 30.9525 4.93278 30.9882 4.67145C31.0239 4.41012 31.0076 4.14431 30.9402 3.88931C30.8728 3.63431 30.7556 3.39516 30.5954 3.18564C30.4352 2.97612 30.2351 2.80036 30.0067 2.66847C29.7782 2.53659 29.526 2.45119 29.2644 2.41719C29.0029 2.3832 28.7372 2.40127 28.4826 2.47038C28.2281 2.53949 27.9897 2.65826 27.7813 2.81987C27.5728 2.98147 27.3984 3.18271 27.268 3.412L25.268 6.876C25.0028 7.33536 24.9309 7.88125 25.0682 8.3936C25.2055 8.90594 25.5407 9.34277 26 9.608ZM36.588 27.268L33.124 25.268C32.8965 25.1346 32.6448 25.0475 32.3834 25.0118C32.1221 24.9761 31.8563 24.9924 31.6013 25.0598C31.3463 25.1272 31.1072 25.2444 30.8976 25.4046C30.6881 25.5648 30.5124 25.7649 30.3805 25.9933C30.2486 26.2218 30.1632 26.474 30.1292 26.7356C30.0952 26.9971 30.1133 27.2628 30.1824 27.5174C30.2515 27.7719 30.3703 28.0103 30.5319 28.2188C30.6935 28.4272 30.8947 28.6016 31.124 28.732L34.588 30.732C35.0471 30.993 35.5908 31.0619 36.1005 30.9235C36.6102 30.7851 37.0445 30.4508 37.3085 29.9934C37.5726 29.536 37.6451 28.9928 37.5101 28.4822C37.3751 27.9716 37.0436 27.5351 36.588 27.268ZM28.732 31.124C28.6016 30.8947 28.4272 30.6935 28.2188 30.5319C28.0103 30.3703 27.7719 30.2515 27.5174 30.1824C27.2628 30.1133 26.9971 30.0952 26.7356 30.1292C26.474 30.1632 26.2218 30.2486 25.9933 30.3805C25.7649 30.5124 25.5648 30.6881 25.4046 30.8976C25.2444 31.1072 25.1272 31.3463 25.0598 31.6013C24.9924 31.8563 24.9761 32.1221 25.0118 32.3834C25.0475 32.6448 25.1346 32.8965 25.268 33.124L27.268 36.588C27.3984 36.8173 27.5728 37.0185 27.7813 37.1801C27.9897 37.3417 28.2281 37.4605 28.4826 37.5296C28.7372 37.5987 29.0029 37.6168 29.2644 37.5828C29.526 37.5488 29.7782 37.4634 30.0067 37.3315C30.2351 37.1996 30.4352 37.0239 30.5954 36.8144C30.7556 36.6048 30.8728 36.3657 30.9402 36.1107C31.0076 35.8557 31.0239 35.5899 30.9882 35.3285C30.9525 35.0672 30.8654 34.8155 30.732 34.588L28.732 31.124ZM38 18H34C33.4696 18 32.9609 18.2107 32.5858 18.5858C32.2107 18.9609 32 19.4696 32 20C32 20.5304 32.2107 21.0391 32.5858 21.4142C32.9609 21.7893 33.4696 22 34 22H38C38.5304 22 39.0391 21.7893 39.4142 21.4142C39.7893 21.0391 40 20.5304 40 20C40 19.4696 39.7893 18.9609 39.4142 18.5858C39.0391 18.2107 38.5304 18 38 18ZM20 32C19.4696 32 18.9609 32.2107 18.5858 32.5858C18.2107 32.9609 18 33.4696 18 34V38C18 38.5304 18.2107 39.0391 18.5858 39.4142C18.9609 39.7893 19.4696 40 20 40C20.5304 40 21.0391 39.7893 21.4142 39.4142C21.7893 39.0391 22 38.5304 22 38V34C22 33.4696 21.7893 32.9609 21.4142 32.5858C21.0391 32.2107 20.5304 32 20 32ZM14 30.392C13.5406 30.1268 12.9947 30.0549 12.4824 30.1922C11.9701 30.3295 11.5332 30.6647 11.268 31.124L9.268 34.588C9.00697 35.0471 8.93813 35.5908 9.0765 36.1005C9.21488 36.6102 9.54924 37.0445 10.0066 37.3085C10.464 37.5726 11.0072 37.6451 11.5178 37.5101C12.0284 37.3751 12.4649 37.0436 12.732 36.588L14.732 33.124C14.9972 32.6646 15.0691 32.1187 14.9318 31.6064C14.7945 31.0941 14.4593 30.6572 14 30.392ZM20 0C19.4696 0 18.9609 0.210714 18.5858 0.585786C18.2107 0.960859 18 1.46957 18 2V6C18 6.53043 18.2107 7.03914 18.5858 7.41421C18.9609 7.78929 19.4696 8 20 8C20.5304 8 21.0391 7.78929 21.4142 7.41421C21.7893 7.03914 22 6.53043 22 6V2C22 1.46957 21.7893 0.960859 21.4142 0.585786C21.0391 0.210714 20.5304 0 20 0Z" fill="#424866"/>
</svg>
