<svg width="16" height="27" viewBox="0 0 16 27" fill="none" xmlns="http://www.w3.org/2000/svg">
<path d="M14.7416 11.8916L3.42159 0.591597C3.23566 0.40414 3.01446 0.255352 2.77074 0.153814C2.52702 0.052277 2.26561 0 2.00159 0C1.73756 0 1.47615 0.052277 1.23243 0.153814C0.988713 0.255352 0.767511 0.40414 0.581585 0.591597C0.209083 0.966321 0 1.47322 0 2.0016C0 2.52997 0.209083 3.03687 0.581585 3.4116L10.4816 13.4116L0.581585 23.3116C0.209083 23.6863 0 24.1932 0 24.7216C0 25.25 0.209083 25.7569 0.581585 26.1316C0.766814 26.3206 0.987704 26.4709 1.23145 26.5739C1.47521 26.6769 1.73697 26.7305 2.00159 26.7316C2.2662 26.7305 2.52796 26.6769 2.77172 26.5739C3.01547 26.4709 3.23636 26.3206 3.42159 26.1316L14.7416 14.8316C14.9446 14.6443 15.1066 14.417 15.2174 14.164C15.3282 13.911 15.3855 13.6378 15.3855 13.3616C15.3855 13.0854 15.3282 12.8122 15.2174 12.5592C15.1066 12.3062 14.9446 12.0789 14.7416 11.8916Z" fill="#F2EFEE"/>
</svg>
