<svg width="41" height="40" viewBox="0 0 41 40" fill="none" xmlns="http://www.w3.org/2000/svg">
<path d="M39.4618 36.6218L32.0418 29.2618C34.922 25.6706 36.3168 21.1124 35.9394 16.5244C35.562 11.9364 33.4411 7.66737 30.0128 4.59509C26.5845 1.52281 22.1094 -0.119179 17.5076 0.00674193C12.9059 0.132663 8.52724 2.01692 5.27208 5.27208C2.01692 8.52724 0.132663 12.9059 0.00674193 17.5076C-0.119179 22.1094 1.52281 26.5845 4.59509 30.0128C7.66737 33.4411 11.9364 35.562 16.5244 35.9394C21.1124 36.3168 25.6706 34.922 29.2618 32.0418L36.6218 39.4018C36.8077 39.5893 37.0289 39.738 37.2726 39.8396C37.5164 39.9411 37.7778 39.9934 38.0418 39.9934C38.3058 39.9934 38.5672 39.9411 38.811 39.8396C39.0547 39.738 39.2759 39.5893 39.4618 39.4018C39.8223 39.0289 40.0238 38.5305 40.0238 38.0118C40.0238 37.4931 39.8223 36.9947 39.4618 36.6218ZM18.0418 32.0418C15.2729 32.0418 12.5661 31.2207 10.2638 29.6824C7.96153 28.144 6.16711 25.9575 5.10749 23.3994C4.04786 20.8412 3.77061 18.0263 4.31081 15.3105C4.851 12.5948 6.18437 10.1002 8.14231 8.14231C10.1002 6.18437 12.5948 4.851 15.3105 4.31081C18.0263 3.77061 20.8412 4.04786 23.3994 5.10749C25.9575 6.16711 28.144 7.96153 29.6824 10.2638C31.2207 12.5661 32.0418 15.2729 32.0418 18.0418C32.0418 21.7548 30.5668 25.3158 27.9413 27.9413C25.3158 30.5668 21.7548 32.0418 18.0418 32.0418Z" fill="#424866"/>
</svg>
