<svg viewBox="0 0 34 40" fill="none" xmlns="http://www.w3.org/2000/svg">
<path d="M19.4586 0.010669C17.4484 -0.0658405 15.4439 0.269788 13.5683 0.996901C11.6928 1.72401 9.98584 2.82723 8.55255 4.23867C7.10601 5.63282 5.95676 7.30546 5.17408 9.15575C4.39141 11.006 3.99153 12.9957 3.99855 15.0047V15.0647L0.190554 23.1527C0.0470783 23.4574 -0.0171239 23.7934 0.0039014 24.1295C0.0249267 24.4657 0.130499 24.7911 0.310826 25.0755C0.491154 25.36 0.740396 25.5943 1.03544 25.7567C1.33048 25.9191 1.66176 26.0044 1.99855 26.0047H3.99855V30.0047C3.99961 31.0652 4.42138 32.082 5.1713 32.8319C5.92121 33.5818 6.93801 34.0036 7.99855 34.0047H9.99855V38.0047C9.99855 38.5351 10.2093 39.0438 10.5843 39.4189C10.9594 39.794 11.4681 40.0047 11.9986 40.0047C12.529 40.0047 13.0377 39.794 13.4128 39.4189C13.7878 39.0438 13.9986 38.5351 13.9986 38.0047V34.0047C14.529 34.0047 15.0377 33.794 15.4128 33.4189C15.7878 33.0438 15.9986 32.5351 15.9986 32.0047C15.9986 31.4742 15.7878 30.9655 15.4128 30.5905C15.0377 30.2154 14.529 30.0047 13.9986 30.0047H7.99855V24.0047C7.99855 23.4742 7.78784 22.9655 7.41277 22.5905C7.03769 22.2154 6.52899 22.0047 5.99855 22.0047H5.15055L7.83055 16.3167C7.96836 16.0267 8.03356 15.7075 8.02055 15.3867L7.99855 15.0047C7.99349 13.5315 8.28681 12.0726 8.86084 10.7159C9.43487 9.35922 10.2777 8.13282 11.3386 7.11067C12.3981 6.08687 13.6517 5.28522 15.0255 4.75286C16.3994 4.22049 17.8658 3.96815 19.3386 4.01067C22.259 4.19297 24.9966 5.49415 26.9821 7.64353C28.9676 9.79291 30.048 12.625 29.9986 15.5507L26.0646 30.5587C25.9727 30.9093 25.9768 31.2782 26.0766 31.6267L28.0766 38.5587C28.197 38.9754 28.4496 39.3417 28.7962 39.6025C29.1428 39.8633 29.5648 40.0044 29.9986 40.0047C30.186 40.0036 30.3725 39.9767 30.5526 39.9247C31.0619 39.7778 31.4921 39.4347 31.7486 38.9708C32.0051 38.5069 32.0669 37.9601 31.9206 37.4507L30.0726 31.0507L33.9326 16.5167C33.9759 16.3494 33.9981 16.1774 33.9986 16.0047V15.5487C34.0412 11.585 32.5535 7.7576 29.8451 4.8633C27.1367 1.969 23.4163 0.230827 19.4586 0.010669Z" fill="#424866"/>
</svg>
